<?xml version="1.0" standalone="no"?>
<!DOCTYPE svg PUBLIC "-//W3C//DTD SVG 20010904//EN"
 "http://www.w3.org/TR/2001/REC-SVG-20010904/DTD/svg10.dtd">
<svg version="1.0" xmlns="http://www.w3.org/2000/svg"
 width="36.000000pt" height="36.000000pt" viewBox="0 0 36.000000 36.000000"
 preserveAspectRatio="xMidYMid meet">

<g transform="translate(0.000000,36.000000) scale(0.100000,-0.100000)"
fill="#000000" stroke="none">
<path d="M272 337 l-22 -23 33 -32 33 -32 22 23 22 23 -33 32 -33 32 -22 -23z"/>
<path d="M20 180 l0 -160 160 0 160 0 0 70 0 70 -30 0 c-28 0 -30 -2 -30 -40
l0 -40 -100 0 -100 0 0 100 0 100 40 0 c38 0 40 2 40 30 l0 30 -70 0 -70 0 0
-160z"/>
<path d="M182 247 c-32 -32 -42 -51 -42 -75 0 -30 3 -32 33 -32 26 0 42 10 77
45 l44 45 -29 30 c-16 16 -31 30 -35 30 -3 0 -25 -19 -48 -43z"/>
</g>
</svg>
